<mxfile host="65bd71144e">
    <diagram id="_qUgSrlQW3vkTtXGYXD_" name="第 1 页">
        <mxGraphModel dx="674" dy="383" grid="1" gridSize="10" guides="1" tooltips="1" connect="1" arrows="1" fold="1" page="1" pageScale="1" pageWidth="827" pageHeight="1169" math="0" shadow="0">
            <root>
                <mxCell id="0"/>
                <mxCell id="1" parent="0"/>
                <mxCell id="2" value="StreamA" style="rounded=0;whiteSpace=wrap;html=1;" vertex="1" parent="1">
                    <mxGeometry x="200" y="20" width="80" height="60" as="geometry"/>
                </mxCell>
                <mxCell id="3" value="StreamB" style="rounded=0;whiteSpace=wrap;html=1;" vertex="1" parent="1">
                    <mxGeometry x="200" y="100" width="80" height="100" as="geometry"/>
                </mxCell>
                <mxCell id="4" value="StreamB" style="rounded=0;whiteSpace=wrap;html=1;" vertex="1" parent="1">
                    <mxGeometry x="100" y="100" width="80" height="100" as="geometry"/>
                </mxCell>
                <mxCell id="5" value="StreamB" style="rounded=0;whiteSpace=wrap;html=1;" vertex="1" parent="1">
                    <mxGeometry x="20" y="100" width="60" height="60" as="geometry"/>
                </mxCell>
            </root>
        </mxGraphModel>
    </diagram>
</mxfile>